Coordinates
version=1
nRows=30
nColumns=33
inDegrees=yes

Units are S.I. units (second, meters, Newtons, ...)
Angles are in degrees.

endheader
time	ground_thorax_rot_x	ground_thorax_rot_y	ground_thorax_rot_z	ground_thorax_tx	ground_thorax_ty	ground_thorax_tz	clav_prot_r	clav_elev_r	scapula_abduction_r	scapula_elevation_r	scapula_upward_rot_r	scapula_winging_r	shoulder_elv_r	plane_of_elev_r	axial_rot_r	elbow_flexion_r	pro_sup_r	wrist_flex_r	wrist_dev_r	clav_prot_l	clav_elev_l	scapula_abduction_l	scapula_elevation_l	scapula_upward_rot_l	scapula_winging_l	shoulder_elv_l	plane_of_elev_l	axial_rot_l	elbow_flexion_l	pro_sup_l	wrist_flex_l	wrist_dev_l	
1.0800	1.307294	-1.555466	-7.970431	-0.082927	1.050060	-0.000053	-12.758184	-7.359735	-13.384624	-0.798384	4.803982	0.633353	55.298625	-49.750563	62.856271	53.875102	4.490492	15.943445	9.385750	-8.039845	-5.084940	8.793558	-4.551386	-6.892247	-2.353252	54.639699	-52.922706	-42.217150	53.204016	2.376917	9.256300	-20.187148	
1.0900	1.244052	-1.319445	-8.120943	-0.082712	1.049765	0.000026	-12.938522	-7.112641	-13.577003	-0.705953	5.161368	0.492467	54.639813	-49.928012	62.493973	54.052762	4.960249	16.215681	9.391150	-7.801324	-4.740578	8.195912	-4.605073	-6.180915	-2.038179	53.989448	-53.307987	-41.998971	53.426334	2.779685	9.477109	-20.647370	
1.1000	1.180569	-1.064233	-8.285164	-0.082497	1.049495	0.000123	-13.133844	-6.877121	-13.788841	-0.627568	5.527651	0.355816	53.945710	-50.097278	62.098406	54.199329	5.444673	16.489050	9.389800	-7.554758	-4.408949	7.568048	-4.633086	-5.431663	-1.713667	53.322385	-53.688592	-41.781799	53.617227	3.200397	9.707279	-21.124937	
1.1100	1.148971	-0.924208	-8.393282	-0.082275	1.049301	0.000177	-13.233917	-6.702384	-13.892018	-0.550628	5.750052	0.259447	53.572635	-50.232524	61.907048	54.438466	5.703810	16.665144	9.367769	-7.424155	-4.168876	7.241638	-4.698180	-5.012036	-1.524486	52.952514	-53.948184	-41.645946	53.835361	3.433653	9.799745	-21.419873	
1.1200	1.136154	-0.844267	-8.475964	-0.082051	1.049141	0.000214	-13.288481	-6.569564	-13.943376	-0.483996	5.897984	0.188138	53.371635	-50.342742	61.812549	54.719789	5.835416	16.785761	9.323022	-7.357674	-3.987324	7.076242	-4.772152	-4.762951	-1.409027	52.746846	-54.135021	-41.558040	54.064450	3.566757	9.807097	-21.625339	
1.1300	1.140574	-0.815699	-8.534730	-0.081828	1.049024	0.000236	-13.304955	-6.478639	-13.950396	-0.431717	5.982467	0.140263	53.315463	-50.427661	61.795999	55.019313	5.857887	16.856131	9.254403	-7.344170	-3.861076	7.043443	-4.848305	-4.657876	-1.356263	52.678659	-54.256946	-41.512526	54.292443	3.616914	9.735314	-21.757443	
1.1400	1.154443	-0.811378	-8.584364	-0.081614	1.048887	0.000252	-13.304397	-6.413072	-13.933921	-0.393420	6.043322	0.104050	53.331611	-50.502679	61.809071	55.331876	5.817148	16.899497	9.145964	-7.356449	-3.765335	7.070766	-4.918258	-4.612255	-1.332402	52.676464	-54.346981	-41.488455	54.532871	3.632407	9.585587	-21.878579	
1.1500	1.172874	-0.808070	-8.629039	-0.081414	1.048764	0.000266	-13.301923	-6.367879	-13.910247	-0.372940	6.103061	0.074533	53.354508	-50.571890	61.814490	55.611713	5.758204	16.930068	9.000206	-7.369273	-3.689553	7.094236	-4.969450	-4.565175	-1.311912	52.678962	-54.426457	-41.470857	54.757348	3.652731	9.377567	-22.021110	
1.1600	1.193548	-0.811129	-8.668669	-0.081239	1.048610	0.000275	-13.287980	-6.339710	-13.860890	-0.368685	6.167064	0.047990	53.391681	-50.659399	61.824218	55.893269	5.660804	16.945621	8.762629	-7.382217	-3.628368	7.113057	-5.005565	-4.513417	-1.293228	52.681546	-54.514620	-41.457346	54.991199	3.689710	9.021756	-22.224918	
1.1700	1.216812	-0.817973	-8.695054	-0.081088	1.048493	0.000282	-13.262774	-6.331847	-13.789988	-0.380429	6.226009	0.027604	53.435928	-50.754228	61.839879	56.144333	5.534878	16.946229	8.460519	-7.394180	-3.587688	7.126244	-5.023826	-4.463851	-1.278176	52.683592	-54.603423	-41.447493	55.201261	3.738997	8.552521	-22.463488	
1.1800	1.241198	-0.827628	-8.712210	-0.080956	1.048369	0.000287	-13.232905	-6.334547	-13.708475	-0.401635	6.285454	0.009956	53.486679	-50.856397	61.855640	56.389757	5.375244	16.942639	8.095330	-7.410450	-3.558972	7.143337	-5.029833	-4.411135	-1.266181	52.684984	-54.693674	-41.435195	55.410895	3.794999	7.963689	-22.738307	
1.1900	1.267143	-0.836463	-8.713937	-0.080835	1.048300	0.000299	-13.208452	-6.345481	-13.638044	-0.428024	6.337658	-0.002582	53.531999	-50.935262	61.862269	56.591225	5.207677	16.943768	7.742110	-7.430610	-3.542558	7.166163	-5.026102	-4.362754	-1.258573	52.687478	-54.764791	-41.420344	55.589407	3.840637	7.365253	-22.992625	
1.2000	1.292830	-0.850067	-8.712056	-0.080730	1.048220	0.000314	-13.189288	-6.356370	-13.578094	-0.453725	6.387182	-0.013674	53.573154	-50.990303	61.859927	56.781537	4.998204	16.963112	7.360643	-7.457006	-3.530658	7.200066	-5.018952	-4.316767	-1.254660	52.688930	-54.822270	-41.408634	55.769205	3.871322	6.662784	-23.252563	
1.2100	1.318523	-0.863775	-8.701547	-0.080642	1.048176	0.000336	-13.179910	-6.365827	-13.539483	-0.475736	6.428336	-0.021906	53.601139	-51.001417	61.845842	56.933827	4.781582	17.001156	7.022335	-7.485645	-3.522579	7.239601	-5.010881	-4.277753	-1.253648	52.691797	-54.850637	-41.400908	55.928055	3.877599	5.980295	-23.469960	
1.2200	1.343862	-0.877301	-8.690458	-0.080568	1.048112	0.000358	-13.181651	-6.369985	-13.521547	-0.493335	6.469019	-0.030141	53.620526	-50.980389	61.818320	57.077727	4.557822	17.055307	6.714656	-7.519179	-3.511885	7.288795	-5.005310	-4.239402	-1.254081	52.694324	-54.856615	-41.391729	56.100396	3.863189	5.310018	-23.662010	
1.2300	1.368554	-0.886798	-8.670286	-0.080515	1.048083	0.000384	-13.192142	-6.375412	-13.519820	-0.511520	6.506949	-0.036135	53.628770	-50.931907	61.781196	57.197873	4.372836	17.108073	6.486728	-7.551405	-3.501984	7.336124	-4.999796	-4.203007	-1.254529	52.698670	-54.838965	-41.377478	56.263989	3.836838	4.776802	-23.802564	
1.2400	1.391625	-0.895558	-8.645167	-0.080487	1.048070	0.000408	-13.203042	-6.387270	-13.517777	-0.535218	6.544071	-0.039806	53.631792	-50.878179	61.742710	57.314347	4.209431	17.150009	6.284279	-7.581815	-3.496134	7.379425	-4.990849	-4.167159	-1.255137	52.701922	-54.813429	-41.359822	56.430539	3.813034	4.301265	-23.930950	
1.2500	1.411144	-0.900627	-8.614098	-0.080483	1.048086	0.000436	-13.217246	-6.407327	-13.519727	-0.566381	6.581100	-0.040275	53.625649	-50.819490	61.699773	57.426507	4.103451	17.170476	6.149147	-7.608758	-3.493602	7.415496	-4.978818	-4.130890	-1.254898	52.707359	-54.777928	-41.330944	56.592773	3.797121	3.981979	-24.026304	
1.2600	1.427160	-0.902229	-8.579625	-0.080495	1.048107	0.000466	-13.237204	-6.431760	-13.530033	-0.602210	6.619604	-0.038741	53.611810	-50.759276	61.650240	57.543154	4.043857	17.175674	6.067705	-7.635411	-3.491932	7.450354	-4.965542	-4.093371	-1.254476	52.713741	-54.735957	-41.290478	56.757787	3.788242	3.788174	-24.097558	
1.2700	1.439560	-0.901061	-8.539570	-0.080529	1.048151	0.000502	-13.258409	-6.461364	-13.543104	-0.641554	6.654667	-0.034445	53.588866	-50.697601	61.600292	57.655965	4.026458	17.167032	6.034286	-7.658273	-3.493558	7.478579	-4.950406	-4.058639	-1.254019	52.721682	-54.689351	-41.246291	56.907623	3.788949	3.705346	-24.145327	
1.2800	1.449786	-0.900113	-8.493668	-0.080590	1.048220	0.000540	-13.274789	-6.494566	-13.551534	-0.680813	6.680627	-0.027423	53.558734	-50.635497	61.558117	57.758320	4.016136	17.155593	6.006426	-7.675965	-3.500953	7.499102	-4.933232	-4.032129	-1.254832	52.728578	-54.642686	-41.213473	57.031144	3.798577	3.632103	-24.189826	
1.2900	1.457732	-0.899273	-8.444586	-0.080675	1.048306	0.000579	-13.286928	-6.530734	-13.556642	-0.719378	6.697182	-0.017655	53.521653	-50.573348	61.523047	57.849730	4.014441	17.140474	5.984365	-7.688655	-3.513279	7.512684	-4.915020	-4.014529	-1.257020	52.735433	-54.596657	-41.192990	57.127449	3.820092	3.568130	-24.232755	
1.3000	1.463988	-0.897586	-8.392519	-0.080779	1.048408	0.000618	-13.296228	-6.569091	-13.561295	-0.756455	6.703823	-0.005092	53.479117	-50.511941	61.493402	57.925670	4.025673	17.119952	5.969442	-7.696697	-3.529771	7.520524	-4.896825	-4.006796	-1.260840	52.744476	-54.550894	-41.188030	57.192573	3.860973	3.514727	-24.278025	
1.3100	1.467004	-0.895436	-8.342237	-0.080898	1.048514	0.000660	-13.304044	-6.609107	-13.567891	-0.791726	6.700699	0.010283	53.430471	-50.449712	61.466613	57.989530	4.052514	17.091127	5.960360	-7.700944	-3.549300	7.524422	-4.879640	-4.008935	-1.266336	52.759130	-54.504943	-41.198197	57.228697	3.927407	3.466806	-24.330274	
1.3200	1.461244	-0.892518	-8.310162	-0.081026	1.048603	0.000711	-13.314518	-6.654345	-13.584489	-0.827476	6.684510	0.031026	53.368361	-50.372901	61.430793	58.048192	4.113106	17.034257	5.954447	-7.702071	-3.571726	7.526757	-4.864723	-4.023929	-1.274526	52.795202	-54.448199	-41.230812	57.239778	4.058072	3.404387	-24.416148	
1.3300	1.445564	-0.890133	-8.295846	-0.081155	1.048656	0.000775	-13.330277	-6.700794	-13.614544	-0.861521	6.659204	0.055242	53.295909	-50.286172	61.384506	58.110678	4.202285	16.953213	5.947418	-7.704160	-3.593886	7.534345	-4.853610	-4.048426	-1.285179	52.852234	-54.385915	-41.275958	57.235243	4.244769	3.320545	-24.532227	
1.3400	1.422357	-0.888409	-8.297090	-0.081281	1.048668	0.000853	-13.350185	-6.746520	-13.655322	-0.892804	6.627084	0.081441	53.218462	-50.194249	61.330596	58.171261	4.313884	16.853855	5.939153	-7.707114	-3.614911	7.546460	-4.846372	-4.080430	-1.297640	52.926009	-54.321312	-41.330218	57.215843	4.474071	3.220590	-24.670202	
1.3500	1.399484	-0.888762	-8.293981	-0.081413	1.048664	0.000938	-13.369699	-6.786231	-13.697034	-0.918400	6.594332	0.105732	53.148473	-50.115760	61.283398	58.219372	4.423336	16.762815	5.931055	-7.710892	-3.634104	7.561595	-4.842031	-4.115651	-1.310571	52.995097	-54.268970	-41.381981	57.180597	4.693278	3.128180	-24.794981	
1.3600	1.379706	-0.891367	-8.290468	-0.081552	1.048641	0.001024	-13.387693	-6.821254	-13.736362	-0.940181	6.563040	0.127819	53.089079	-50.050089	61.243520	58.249468	4.525449	16.683636	5.921870	-7.714498	-3.652009	7.577515	-4.839759	-4.153188	-1.323751	53.054218	-54.227518	-41.430385	57.137684	4.891492	3.045663	-24.903120	
1.3700	1.368481	-0.897137	-8.270605	-0.081705	1.048621	0.001108	-13.400913	-6.847968	-13.766251	-0.956208	6.537615	0.144913	53.048922	-50.010384	61.221693	58.254385	4.602874	16.636882	5.912002	-7.718171	-3.668597	7.593438	-4.838335	-4.189769	-1.336298	53.088477	-54.207496	-41.466238	57.085312	5.030493	2.989304	-24.968399	
